<svg id="Capa_1" enable-background="new 0 0 512 512" viewBox="0 0 512 512" xmlns="http://www.w3.org/2000/svg"><g><g><g><g><path d="m393.229 103.665h-238.35v283.048h60.04v-162.066c0-7.876 6.408-14.285 14.285-14.285h164.776v-105.666z" fill="#acacac"/></g><g><g><path d="m393.98 210.362v-105.667l-.751-1.03h-30.654v106.697z" fill="#9c9c9c"/></g><g><path d="m154.878 357.337h60.04v29.376h-60.04z" fill="#9c9c9c"/></g></g><g><path d="m155.878 103.665h-154.332l-1.546 1.03v266.557c0 8.539 6.922 15.461 15.461 15.461h140.417z" fill="#eaf6ff"/></g><g><path d="m124.956 103.665v243.365c0 5.693-4.615 10.307-10.307 10.307h-114.649v13.915c0 8.539 6.922 15.461 15.461 15.461h140.417v-283.048z" fill="#d8ecfe"/></g><g><path d="m378.519 41.321h-363.058c-8.539 0-15.461 6.922-15.461 15.461v47.914h393.98v-47.914c0-8.539-6.922-15.461-15.461-15.461z" fill="#60b7ff"/></g><g><path d="m378.519 41.321h-15.943v23.691c0 5.693-4.615 10.307-10.307 10.307h-352.269v29.376h393.98v-47.913c0-8.539-6.922-15.461-15.461-15.461z" fill="#26a6fe"/></g></g><g><g><path d="m511.431 256.506h-296.373l-1.17.78v198.079c0 8.458 6.857 15.315 15.315 15.315h267.481c8.458 0 15.315-6.857 15.315-15.315v-198.079z" fill="#ebebeb"/></g><g><path d="m511.431 256.506h-29.838v167.936c0 8.458-6.857 15.315-15.315 15.315h-252.39v15.607c0 8.458 6.857 15.315 15.315 15.315h267.481c8.458 0 15.315-6.857 15.315-15.315v-198.079z" fill="#e2e2e2"/></g><g><path d="m496.685 209.332h-267.482c-8.458 0-15.315 6.857-15.315 15.315v32.638h298.112v-32.638c0-8.458-6.857-15.315-15.315-15.315z" fill="#05e39c"/></g><g><path d="m496.685 209.332h-15.092v14.43c0 5.693-4.615 10.307-10.307 10.307h-257.398v23.216h298.112v-32.639c0-8.457-6.857-15.314-15.315-15.314z" fill="#0ed290"/></g><g><path d="m419.635 430.48h-113.382c-12.524 0-22.676-10.153-22.676-22.676 0-12.524 10.153-22.676 22.676-22.676h113.382c12.524 0 22.676 10.153 22.676 22.676 0 12.524-10.152 22.676-22.676 22.676z" fill="#05e39c"/></g><g><path d="m419.635 385.127h-7.113c.003.154.012.307.012.462 0 12.524-10.153 22.676-22.676 22.676h-106.27c.247 12.31 10.296 22.215 22.665 22.215h113.382c12.524 0 22.676-10.152 22.676-22.676 0-12.524-10.152-22.677-22.676-22.677z" fill="#0ed290"/></g></g></g><g><g><path d="m305.255 80.508h-1.057c-4.142 0-7.5-3.357-7.5-7.5s3.358-7.5 7.5-7.5h1.057c4.142 0 7.5 3.357 7.5 7.5s-3.358 7.5-7.5 7.5z" fill="#fff"/></g><g><path d="m333.774 80.508h-1.056c-4.142 0-7.5-3.357-7.5-7.5s3.358-7.5 7.5-7.5h1.056c4.142 0 7.5 3.357 7.5 7.5s-3.358 7.5-7.5 7.5z" fill="#fff"/></g><g><path d="m362.292 80.508h-1.056c-4.142 0-7.5-3.357-7.5-7.5s3.358-7.5 7.5-7.5h1.056c4.142 0 7.5 3.357 7.5 7.5s-3.357 7.5-7.5 7.5z" fill="#fff"/></g><g fill="#8ac9fe"><path d="m113.551 202.671c4.142 0 7.5-3.357 7.5-7.5v-54.898c0-4.143-3.358-7.5-7.5-7.5s-7.5 3.357-7.5 7.5v54.898c0 4.142 3.358 7.5 7.5 7.5z"/><path d="m39.48 202.18c3.874 1.477 8.204-.47 9.678-4.34l3.294-8.649h22.767l3.256 8.629c1.134 3.003 3.987 4.854 7.019 4.854.879 0 1.775-.156 2.646-.485 3.875-1.462 5.832-5.789 4.369-9.665l-20.427-54.128c-.026-.068-.053-.137-.081-.204-1.354-3.292-4.527-5.419-8.086-5.419h-.007c-3.562.003-6.736 2.136-8.085 5.432-.023.058-.046.115-.068.173l-20.614 54.126c-1.474 3.868.468 8.201 4.339 9.676zm30.079-27.99h-11.394l5.723-15.026z"/><path d="m40.288 238.993h75.125c4.142 0 7.5-3.357 7.5-7.5s-3.358-7.5-7.5-7.5h-75.125c-4.142 0-7.5 3.357-7.5 7.5s3.358 7.5 7.5 7.5z"/><path d="m40.288 277.646h28.86c4.142 0 7.5-3.357 7.5-7.5s-3.358-7.5-7.5-7.5h-28.86c-4.142 0-7.5 3.357-7.5 7.5s3.358 7.5 7.5 7.5z"/><path d="m115.413 262.646h-19.228c-4.142 0-7.5 3.357-7.5 7.5s3.358 7.5 7.5 7.5h19.228c4.142 0 7.5-3.357 7.5-7.5s-3.358-7.5-7.5-7.5z"/><path d="m115.413 301.299h-75.125c-4.142 0-7.5 3.357-7.5 7.5s3.358 7.5 7.5 7.5h75.125c4.142 0 7.5-3.357 7.5-7.5s-3.358-7.5-7.5-7.5z"/><path d="m54.857 339.951h-14.569c-4.142 0-7.5 3.357-7.5 7.5s3.358 7.5 7.5 7.5h14.569c4.142 0 7.5-3.357 7.5-7.5s-3.358-7.5-7.5-7.5z"/><path d="m115.413 339.951h-32.865c-4.142 0-7.5 3.357-7.5 7.5s3.358 7.5 7.5 7.5h32.864c4.142 0 7.5-3.357 7.5-7.5s-3.357-7.5-7.499-7.5z"/></g><g><g><path d="m471.618 309.599h-32.978c-4.142 0-7.5-3.357-7.5-7.5s3.358-7.5 7.5-7.5h32.978c4.142 0 7.5 3.357 7.5 7.5s-3.358 7.5-7.5 7.5z" fill="#acacac"/></g><g><path d="m399.927 309.599h-145.657c-4.142 0-7.5-3.357-7.5-7.5s3.358-7.5 7.5-7.5h145.657c4.142 0 7.5 3.357 7.5 7.5s-3.358 7.5-7.5 7.5z" fill="#acacac"/></g><g><path d="m325.367 350.828h-71.097c-4.142 0-7.5-3.357-7.5-7.5s3.358-7.5 7.5-7.5h71.098c4.142 0 7.5 3.357 7.5 7.5s-3.359 7.5-7.501 7.5z" fill="#acacac"/></g><g><path d="m471.618 350.828h-108.971c-4.142 0-7.5-3.357-7.5-7.5s3.358-7.5 7.5-7.5h108.971c4.142 0 7.5 3.357 7.5 7.5s-3.358 7.5-7.5 7.5z" fill="#acacac"/></g></g></g></g><g/><g/><g/><g/><g/><g/><g/><g/><g/><g/><g/><g/><g/><g/><g/></svg>