<svg id="Capa_1" enable-background="new 0 0 512 512" height="512" viewBox="0 0 512 512" width="512" xmlns="http://www.w3.org/2000/svg"><g><path d="m458.916 451.048h-405.832c-11.396 0-20.634-9.238-20.634-20.634v-254.223c0-11.396 9.238-20.634 20.634-20.634h405.831c11.396 0 20.634 9.238 20.634 20.634v254.223c0 11.396-9.238 20.634-20.633 20.634z" fill="#54469c"/><path d="m458.946 155.557h-30.906c11.379 0 20.604 9.251 20.604 20.664v254.163c0 11.412-9.225 20.664-20.604 20.664h30.905c11.379 0 20.604-9.251 20.604-20.664v-254.163c0-11.412-9.224-20.664-20.603-20.664z" fill="#463b84"/><path d="m63.356 417.189v-227.773c0-1.581 1.282-2.864 2.864-2.864h379.56c1.582 0 2.864 1.282 2.864 2.864v227.772c0 1.582-1.282 2.864-2.864 2.864h-379.56c-1.582 0-2.864-1.282-2.864-2.863z" fill="#99e6fc"/><path d="m445.784 186.553h-30.905c1.579 0 2.859 1.284 2.859 2.868v227.764c0 1.584-1.28 2.868-2.859 2.868h30.905c1.579 0 2.859-1.284 2.859-2.868v-227.764c.001-1.584-1.279-2.868-2.859-2.868z" fill="#8ac9fe"/><path d="m490.673 512h-469.346c-11.779 0-21.327-9.548-21.327-21.327v-30.738c0-5.383 4.364-9.747 9.747-9.747h492.507c5.383 0 9.747 4.364 9.747 9.747v30.738c-.001 11.779-9.549 21.327-21.328 21.327z" fill="#a2aee6"/><path d="m502.253 450.189h-30.905c5.383 0 9.747 4.364 9.747 9.746v30.738c0 11.778-9.548 21.327-21.327 21.327h30.905c11.778 0 21.327-9.548 21.327-21.327v-30.738c0-5.382-4.364-9.746-9.747-9.746z" fill="#8795de"/><path d="m189.038 450.189h133.924v16.507c0 6.814-5.524 12.338-12.338 12.338h-109.247c-6.814 0-12.338-5.524-12.338-12.338v-16.507z" fill="#6c7fd8"/><path d="m154.375 378.354h-41.266c-4.59 0-8.311-3.721-8.311-8.311v-108.133c0-4.59 3.721-8.311 8.311-8.311h41.266c4.59 0 8.311 3.721 8.311 8.311v108.133c-.001 4.59-3.721 8.311-8.311 8.311z" fill="#e759aa"/><path d="m154.375 253.599h-30.905c4.59 0 8.311 3.721 8.311 8.311v108.133c0 4.59-3.721 8.311-8.311 8.311h30.905c4.59 0 8.311-3.721 8.311-8.311v-108.133c-.001-4.59-3.721-8.311-8.311-8.311z" fill="#9857bd"/><g fill="#e759aa"><path d="m53.516 474.984h-9.775c-4.142 0-7.5 3.358-7.5 7.5s3.358 7.5 7.5 7.5h9.775c4.142 0 7.5-3.358 7.5-7.5s-3.358-7.5-7.5-7.5z"/><path d="m94.723 474.984h-9.774c-4.142 0-7.5 3.358-7.5 7.5s3.358 7.5 7.5 7.5h9.774c4.142 0 7.5-3.358 7.5-7.5s-3.358-7.5-7.5-7.5z"/></g><g fill="#54469c"><path d="m200.55 302.171h58.622c4.142 0 7.5-3.358 7.5-7.5s-3.358-7.5-7.5-7.5h-58.622c-4.142 0-7.5 3.358-7.5 7.5s3.358 7.5 7.5 7.5z"/><path d="m200.55 331.399h107.35c4.142 0 7.5-3.358 7.5-7.5s-3.358-7.5-7.5-7.5h-107.35c-4.142 0-7.5 3.358-7.5 7.5s3.358 7.5 7.5 7.5z"/><path d="m307.9 342.57h-107.35c-4.142 0-7.5 3.358-7.5 7.5s3.358 7.5 7.5 7.5h107.35c4.142 0 7.5-3.358 7.5-7.5s-3.358-7.5-7.5-7.5z"/><path d="m307.9 368.741h-107.35c-4.142 0-7.5 3.358-7.5 7.5s3.358 7.5 7.5 7.5h107.35c4.142 0 7.5-3.358 7.5-7.5s-3.358-7.5-7.5-7.5z"/></g><path d="m403.075 310.711c-2.929-2.929-7.678-2.929-10.606 0l-22.599 22.599-14.714-14.714c-2.929-2.929-7.678-2.929-10.606 0-2.929 2.929-2.929 7.678 0 10.606l20.018 20.018c1.464 1.464 3.384 2.197 5.303 2.197s3.839-.732 5.303-2.197l27.902-27.902c2.928-2.929 2.928-7.678-.001-10.607z" fill="#97da7b"/><path d="m414.586 14.451v189.949c0 7.981-6.47 14.451-14.451 14.451h-117.024c-1.147 0-2.202.629-2.748 1.637l-21.179 39.136c-1.369 2.53-5 2.53-6.369 0l-21.179-39.136c-.546-1.009-1.601-1.637-2.748-1.637h-117.023c-7.981 0-14.451-6.47-14.451-14.451v-189.949c0-7.981 6.47-14.451 14.451-14.451h288.27c7.981 0 14.451 6.47 14.451 14.451z" fill="#eaf6ff"/><g><path d="m400.135 0h-30.905c7.981 0 14.451 6.47 14.451 14.451v189.95c0 7.981-6.47 14.451-14.451 14.451h30.905c7.981 0 14.451-6.47 14.451-14.451v-189.95c0-7.981-6.47-14.451-14.451-14.451z" fill="#d8ecfe"/></g><path d="m287.324 172.583v-36.97c0-1.416 1.148-2.563 2.563-2.563h91.466c1.416 0 2.563 1.148 2.563 2.563v36.97c0 1.416-1.148 2.563-2.563 2.563h-91.466c-1.415 0-2.563-1.148-2.563-2.563z" fill="#fef056"/><path d="m381.354 133.05h-30.905c1.416 0 2.563 1.148 2.563 2.563v36.97c0 1.416-1.148 2.563-2.563 2.563h30.905c1.416 0 2.563-1.148 2.563-2.563v-36.97c0-1.416-1.148-2.563-2.563-2.563z" fill="#ffd15b"/><g fill="#54469c"><g><path d="m178.022 62.75c-.026-.069-.053-.137-.081-.205-1.48-3.6-4.951-5.924-8.842-5.924h-.009c-3.895.003-7.366 2.335-8.841 5.94-.023.057-.046.114-.068.171l-34.156 89.681c-1.474 3.871.468 8.204 4.339 9.678.879.335 1.781.493 2.668.493 3.022 0 5.871-1.84 7.01-4.833l6.667-17.505h44.526l6.598 17.483c1.463 3.875 5.788 5.832 9.665 4.369 3.875-1.462 5.832-5.79 4.369-9.665zm-25.599 62.498 16.652-43.722 16.5 43.722z"/><path d="m234.474 56.621c-4.142 0-7.5 3.358-7.5 7.5v90.962c0 4.142 3.358 7.5 7.5 7.5s7.5-3.358 7.5-7.5v-90.962c0-4.142-3.358-7.5-7.5-7.5z"/></g><g><path d="m296.903 49.949h42.544c4.142 0 7.5-3.358 7.5-7.5s-3.358-7.5-7.5-7.5h-42.544c-4.142 0-7.5 3.358-7.5 7.5s3.358 7.5 7.5 7.5z"/><path d="m296.903 79.177h77.908c4.142 0 7.5-3.358 7.5-7.5s-3.358-7.5-7.5-7.5h-77.908c-4.142 0-7.5 3.358-7.5 7.5s3.358 7.5 7.5 7.5z"/><path d="m374.811 90.348h-77.908c-4.142 0-7.5 3.358-7.5 7.5s3.358 7.5 7.5 7.5h77.908c4.142 0 7.5-3.358 7.5-7.5s-3.358-7.5-7.5-7.5z"/></g></g></g></svg>