<svg id="Capa_1" enable-background="new 0 0 512 512" height="512" viewBox="0 0 512 512" width="512" xmlns="http://www.w3.org/2000/svg"><g><g><path d="m478.699 512h-445.398c-18.392 0-33.301-14.909-33.301-33.301v-378.797h512v378.797c0 18.392-14.909 33.301-33.301 33.301z" fill="#e5f6fd"/></g><g><path d="m478.699 99.902v378.797c0 18.392-14.909 33.301-33.301 33.301h33.301c18.392 0 33.301-14.909 33.301-33.301v-378.797z" fill="#d3eefd"/></g><g><path d="m33.301 468.293v-324.683c0-5.747 4.659-10.407 10.407-10.407h424.585c5.747 0 10.406 4.659 10.406 10.407v324.683c0 5.747-4.659 10.406-10.406 10.406h-424.586c-5.747 0-10.406-4.659-10.406-10.406z" fill="#fe73c5"/></g><g><path d="m512 99.902h-512v-66.601c0-18.392 14.909-33.301 33.301-33.301h445.398c18.392 0 33.301 14.909 33.301 33.301z" fill="#688ed5"/></g><g><path d="m478.699 0h-33.301c18.392 0 33.301 14.909 33.301 33.301v66.602h33.301v-66.602c0-18.392-14.909-33.301-33.301-33.301z" fill="#4172ca"/></g><g><path d="m69.04 192.49 41.208 41.208-41.208 41.207c-3.251 3.251-3.251 8.522 0 11.774l11.774 11.774c3.251 3.251 8.522 3.251 11.774 0l57.396-57.396c4.064-4.064 4.064-10.653 0-14.717l-57.396-57.396c-3.251-3.251-8.522-3.251-11.774 0l-11.774 11.772c-3.251 3.251-3.251 8.522 0 11.774z" fill="#ffe177"/></g><g><path d="m263.043 300.891h-83.252c-4.598 0-8.325-3.727-8.325-8.325v-16.65c0-4.598 3.727-8.325 8.325-8.325h83.252c4.598 0 8.325 3.727 8.325 8.325v16.65c.001 4.597-3.727 8.325-8.325 8.325z" fill="#ffe177"/></g><g><circle cx="462.049" cy="49.951" fill="#9be69d" r="16.65"/></g><g><circle cx="395.447" cy="49.951" fill="#ffd15b" r="16.65"/></g><g><circle cx="328.846" cy="49.951" fill="#fe73c5" r="16.65"/></g><g><g><path d="m345.968 452.898c-11.013 0-21.767-4.612-28.767-12.336-2.781-3.069-2.548-7.812.521-10.594 3.067-2.781 7.811-2.549 10.594.521 4.204 4.639 10.803 7.409 17.651 7.409 6.869 0 11.723-4.196 12.447-8.253.993-5.564-6.145-8.837-9.26-9.986l-2.933-1.08c-8.271-3.042-12.828-4.719-17.435-7.227-6.93-3.774-10.715-11.135-9.88-19.211.937-9.061 7.489-16.707 16.692-19.479 17.773-5.354 32.418 6.724 33.033 7.241 3.171 2.666 3.58 7.396.915 10.567-2.655 3.16-7.361 3.578-10.532.944-.234-.189-9.255-7.351-19.09-4.39-4.116 1.24-5.85 4.254-6.099 6.66-.121 1.179-.006 3.33 2.134 4.495 3.642 1.983 7.585 3.433 15.439 6.322l2.945 1.084c16.325 6.022 20.434 17.739 18.834 26.696-2.129 11.947-13.573 20.617-27.209 20.617z" fill="#e5f6fd"/></g></g><g><g><path d="m269.417 452.898c-11.013 0-21.767-4.612-28.767-12.336-2.781-3.069-2.548-7.812.521-10.594 3.067-2.781 7.811-2.549 10.594.521 4.204 4.639 10.803 7.409 17.651 7.409 6.869 0 11.723-4.196 12.447-8.253.993-5.564-6.145-8.837-9.26-9.986l-2.933-1.08c-8.271-3.042-12.828-4.719-17.435-7.227-6.93-3.774-10.715-11.135-9.88-19.211.937-9.061 7.489-16.707 16.692-19.479 17.772-5.354 32.418 6.724 33.033 7.241 3.171 2.666 3.58 7.396.915 10.567-2.655 3.16-7.361 3.578-10.532.944-.234-.189-9.255-7.351-19.09-4.39-4.116 1.24-5.85 4.254-6.099 6.66-.121 1.179-.006 3.33 2.134 4.495 3.642 1.983 7.585 3.433 15.439 6.322l2.945 1.084c16.325 6.022 20.434 17.739 18.834 26.696-2.129 11.947-13.573 20.617-27.209 20.617z" fill="#e5f6fd"/></g></g><path d="m445.398 371.297c-4.143 0-7.5 3.358-7.5 7.5v24.659h-31.088v-24.659c0-4.142-3.357-7.5-7.5-7.5s-7.5 3.358-7.5 7.5v66.602c0 4.142 3.357 7.5 7.5 7.5s7.5-3.358 7.5-7.5v-26.943h31.089v26.943c0 4.142 3.357 7.5 7.5 7.5s7.5-3.358 7.5-7.5v-66.602c-.001-4.142-3.358-7.5-7.501-7.5z" fill="#e5f6fd"/></g></svg>