<svg id="Capa_1" enable-background="new 0 0 512 512" height="512" viewBox="0 0 512 512" width="512" xmlns="http://www.w3.org/2000/svg"><g><g><path d="m256 148.924c-4.142 0-7.5-3.358-7.5-7.5v-51.823c0-4.142 3.358-7.5 7.5-7.5s7.5 3.358 7.5 7.5v51.823c0 4.142-3.358 7.5-7.5 7.5z" fill="#528fd8"/></g><g><path d="m255.999 280.046c-4.142 0-7.5-3.358-7.5-7.5v-51.823c0-4.142 3.358-7.5 7.5-7.5s7.5 3.358 7.5 7.5v51.823c0 4.142-3.358 7.5-7.5 7.5z" fill="#528fd8"/></g><g><path d="m256 429.899c-4.142 0-7.5-3.358-7.5-7.5v-70.555c0-4.142 3.358-7.5 7.5-7.5s7.5 3.358 7.5 7.5v70.555c0 4.143-3.358 7.5-7.5 7.5z" fill="#528fd8"/></g><g fill="#528fd8"><path d="m437.073 42.451h-66.602c-4.142 0-7.5 3.358-7.5 7.5s3.358 7.5 7.5 7.5h66.602c1.603 0 2.906 1.304 2.906 2.907v110.309c0 1.603-1.304 2.907-2.906 2.907h-72.43l12.172-12.172c2.929-2.929 2.929-7.678 0-10.606-2.929-2.929-7.678-2.929-10.606 0l-24.976 24.976c-2.929 2.929-2.929 7.678 0 10.606l24.976 24.976c1.464 1.464 3.384 2.197 5.303 2.197s3.839-.732 5.303-2.197c2.929-2.929 2.929-7.678 0-10.606l-12.172-12.172h72.43c9.874 0 17.906-8.033 17.906-17.907v-110.311c0-9.874-8.032-17.907-17.906-17.907z"/><path d="m141.528 173.573h-66.601c-9.874 0-17.906 8.033-17.906 17.906v110.309c0 9.874 8.033 17.907 17.906 17.907h38.089l-12.172 12.172c-2.929 2.929-2.929 7.678 0 10.606 1.464 1.464 3.384 2.197 5.303 2.197s3.839-.732 5.303-2.197l24.976-24.976c2.929-2.929 2.929-7.678 0-10.606l-24.976-24.976c-2.929-2.929-7.678-2.929-10.606 0-2.929 2.929-2.929 7.678 0 10.606l12.172 12.172h-38.089c-1.603 0-2.906-1.304-2.906-2.907v-110.307c0-1.603 1.304-2.906 2.906-2.906h66.602c4.142 0 7.5-3.358 7.5-7.5s-3.359-7.5-7.501-7.5z"/><path d="m437.073 304.695h-97.716c-4.142 0-7.5 3.358-7.5 7.5s3.358 7.5 7.5 7.5h97.716c1.603 0 2.906 1.304 2.906 2.906v129.041c0 1.603-1.304 2.907-2.906 2.907h-38.089l12.172-12.172c2.929-2.929 2.929-7.678 0-10.606-2.929-2.929-7.678-2.929-10.606 0l-24.976 24.976c-2.929 2.929-2.929 7.678 0 10.606l24.976 24.976c1.464 1.464 3.384 2.197 5.303 2.197s3.839-.732 5.303-2.197c2.929-2.929 2.929-7.678 0-10.606l-12.172-12.172h38.089c9.874 0 17.906-8.033 17.906-17.907v-129.042c0-9.874-8.032-17.907-17.906-17.907z"/></g><g><path d="m353.821 99.902h-195.642c-9.196 0-16.65-7.455-16.65-16.65v-66.602c0-9.196 7.455-16.65 16.65-16.65h195.642c9.196 0 16.65 7.455 16.65 16.65v66.602c.001 9.196-7.454 16.65-16.65 16.65z" fill="#fe7ab6"/></g><g><path d="m333.008 362.146h-154.016c-9.196 0-16.65-7.455-16.65-16.65v-66.602c0-9.196 7.455-16.65 16.65-16.65h154.016c9.196 0 16.65 7.455 16.65 16.65v66.602c.001 9.196-7.454 16.65-16.65 16.65z" fill="#bbec6c"/></g><g><path d="m333.008 512h-154.016c-9.196 0-16.65-7.455-16.65-16.65v-66.602c0-9.196 7.455-16.65 16.65-16.65h154.016c9.196 0 16.65 7.455 16.65 16.65v66.602c.001 9.195-7.454 16.65-16.65 16.65z" fill="#99e6fc"/></g><g><path d="m353.821 0h-31.22c9.196 0 16.65 7.455 16.65 16.65v66.602c0 9.196-7.455 16.65-16.65 16.65h31.22c9.196 0 16.65-7.455 16.65-16.65v-66.602c.001-9.195-7.454-16.65-16.65-16.65z" fill="#fe5ca7"/></g><g><path d="m333.008 262.244h-31.22c9.196 0 16.65 7.455 16.65 16.65v66.602c0 9.196-7.455 16.65-16.65 16.65h31.22c9.196 0 16.65-7.455 16.65-16.65v-66.602c.001-9.195-7.454-16.65-16.65-16.65z" fill="#a2e62e"/></g><g><path d="m333.008 412.098h-31.22c9.196 0 16.65 7.455 16.65 16.65v66.602c0 9.196-7.455 16.65-16.65 16.65h31.22c9.196 0 16.65-7.455 16.65-16.65v-66.602c.001-9.196-7.454-16.65-16.65-16.65z" fill="#62dbfb"/></g><g><path d="m247.947 227.689-38.562-38.562c-4.448-4.448-4.448-11.659 0-16.107l38.562-38.562c4.448-4.448 11.659-4.448 16.107 0l38.562 38.562c4.448 4.448 4.448 11.659 0 16.107l-38.562 38.562c-4.448 4.447-11.66 4.447-16.107 0z" fill="#ffe177"/></g><g><path d="m302.615 173.02-19.134-19.134c-5.721 12.607-14.231 25.033-25.353 36.154-8.445 8.445-17.646 15.369-27.103 20.727l16.921 16.921c4.448 4.448 11.659 4.448 16.107 0l38.562-38.562c4.448-4.447 4.448-11.659 0-16.106z" fill="#ffd15b"/></g><g><g><path d="m337.171 40.801h-87.415c-4.142 0-7.5-3.358-7.5-7.5s3.358-7.5 7.5-7.5h87.415c4.142 0 7.5 3.358 7.5 7.5s-3.358 7.5-7.5 7.5z" fill="#f2fbff"/></g><g><path d="m216.455 40.801h-20.813c-4.142 0-7.5-3.358-7.5-7.5s3.358-7.5 7.5-7.5h20.813c4.142 0 7.5 3.358 7.5 7.5s-3.358 7.5-7.5 7.5z" fill="#f2fbff"/></g><g><path d="m283.057 74.102h-108.228c-4.142 0-7.5-3.358-7.5-7.5s3.358-7.5 7.5-7.5h108.228c4.142 0 7.5 3.358 7.5 7.5s-3.358 7.5-7.5 7.5z" fill="#f2fbff"/></g><g><path d="m337.171 74.102h-20.813c-4.142 0-7.5-3.358-7.5-7.5s3.358-7.5 7.5-7.5h20.813c4.142 0 7.5 3.358 7.5 7.5s-3.358 7.5-7.5 7.5z" fill="#f2fbff"/></g></g><g><g><path d="m318.439 303.045h-49.951c-4.142 0-7.5-3.358-7.5-7.5s3.358-7.5 7.5-7.5h49.951c4.142 0 7.5 3.358 7.5 7.5s-3.358 7.5-7.5 7.5z" fill="#f2fbff"/></g><g><path d="m235.187 303.045h-20.813c-4.142 0-7.5-3.358-7.5-7.5s3.358-7.5 7.5-7.5h20.813c4.142 0 7.5 3.358 7.5 7.5s-3.358 7.5-7.5 7.5z" fill="#f2fbff"/></g><g><path d="m264.325 336.346h-70.764c-4.142 0-7.5-3.358-7.5-7.5s3.358-7.5 7.5-7.5h70.764c4.142 0 7.5 3.358 7.5 7.5s-3.358 7.5-7.5 7.5z" fill="#f2fbff"/></g><g><path d="m318.439 336.346h-20.813c-4.142 0-7.5-3.358-7.5-7.5s3.358-7.5 7.5-7.5h20.813c4.142 0 7.5 3.358 7.5 7.5s-3.358 7.5-7.5 7.5z" fill="#f2fbff"/></g></g><g><g><path d="m318.439 452.898h-49.951c-4.142 0-7.5-3.358-7.5-7.5s3.358-7.5 7.5-7.5h49.951c4.142 0 7.5 3.358 7.5 7.5s-3.358 7.5-7.5 7.5z" fill="#f2fbff"/></g><g><path d="m235.187 452.898h-20.813c-4.142 0-7.5-3.358-7.5-7.5s3.358-7.5 7.5-7.5h20.813c4.142 0 7.5 3.358 7.5 7.5s-3.358 7.5-7.5 7.5z" fill="#f2fbff"/></g><g><path d="m264.325 486.199h-70.764c-4.142 0-7.5-3.358-7.5-7.5s3.358-7.5 7.5-7.5h70.764c4.142 0 7.5 3.358 7.5 7.5s-3.358 7.5-7.5 7.5z" fill="#f2fbff"/></g><g><path d="m318.439 486.199h-20.813c-4.142 0-7.5-3.358-7.5-7.5s3.358-7.5 7.5-7.5h20.813c4.142 0 7.5 3.358 7.5 7.5s-3.358 7.5-7.5 7.5z" fill="#f2fbff"/></g></g></g></svg>