<svg id="Capa_1" enable-background="new 0 0 497 497" viewBox="0 0 497 497" xmlns="http://www.w3.org/2000/svg"><g><path d="m0 407v-30h45v60h-15c-16.569 0-30-13.431-30-30z" fill="#8b7ee2"/><path d="m0 377v-77c0-16.569 13.431-30 30-30h15v137h-15c-16.569 0-30-13.431-30-30z" fill="#a096e1"/><path d="m392 407v-30h-45v60h15c16.569 0 30-13.431 30-30z" fill="#7666e3"/><path d="m392 377v-77c0-16.569-13.431-30-30-30h-15v137h15c16.569 0 30-13.431 30-30z" fill="#6b80ea"/><path d="m250.5 180h-30v45h60v-15c0-16.569-13.431-30-30-30z" fill="#8b7ee2"/><path d="m220.5 180h-79c-16.569 0-30 13.431-30 30v15h139v-15c0-16.569-13.431-30-30-30z" fill="#a096e1"/><path d="m302 210h-30v287h30c33.137 0 60-26.863 60-60v-167c0-33.137-26.863-60-60-60z" fill="#ccc7e0"/><path d="m332 437v-30l-15-68.5 15-68.5c0-33.137-26.863-60-60-60h-182c-33.137 0-60 26.863-60 60v167c0 33.137 26.863 60 60 60h182c33.137 0 60-26.863 60-60z" fill="#dfdde9"/><path d="m302 240c-5.312 0-10.474 1.416-14.996 4.026l-15.004 192.974h30c16.569 0 30-13.431 30-30v-137c0-16.569-13.431-30-30-30z" fill="#4c4a49"/><path d="m302 407v-137c0-11.101-6.034-20.786-14.996-25.974-2.252 1.3-4.347 2.891-6.217 4.761l-12.426 12.426c-5.626 5.626-13.257 8.787-21.213 8.787h-102.295c-7.956 0-15.587-3.161-21.213-8.787l-12.426-12.426c-5.627-5.626-13.257-8.787-21.214-8.787-16.569 0-30 13.431-30 30v137c0 16.569 13.431 30 30 30h182c16.569 0 30-13.431 30-30z" fill="#625f5e"/><path d="m238.446 347h-12.446l-30 15-30-15h-12.446c-10.215 0-17.599 10.041-14.248 19.691 8.149 23.465 30.454 40.309 56.694 40.309s48.546-16.844 56.694-40.309c3.351-9.65-4.033-19.691-14.248-19.691z" fill="#60f07b"/><g fill="#fff"><path d="m196 377c16.569 0 30-13.431 30-30h-60c0 16.569 13.432 30 30 30z"/><circle cx="105" cy="323.5" r="15"/><circle cx="287" cy="323.5" r="15"/></g><path d="m482 0c-8.284 0-15 6.716-15 15v150c0 8.284 6.716 15 15 15s15-6.716 15-15v-150c0-8.284-6.716-15-15-15z" fill="#a096e1"/><path d="m378.629 9.966c-2.069-5.808-7.616-9.966-14.133-9.966s-12.064 4.158-14.133 9.966l-57.373 149.662c-2.965 7.735.902 16.41 8.637 19.375 7.734 2.965 16.41-.902 19.375-8.637l10.629-27.726h65.73l10.629 27.726c2.966 7.735 11.641 11.602 19.375 8.637 7.735-2.965 11.603-11.64 8.637-19.375zm-35.498 102.675 21.365-55.732 21.365 55.732z" fill="#a096e1"/></g><g/><g/><g/><g/><g/><g/><g/><g/><g/><g/><g/><g/><g/><g/><g/></svg>